<mxfile host="app.diagrams.net" modified="2023-11-02T09:10:50.439Z" agent="Mozilla/5.0 (Windows NT 10.0; Win64; x64; rv:109.0) Gecko/20100101 Firefox/119.0" etag="dVTxiNkBzSyJnH3KJAgr" version="22.0.8" type="device">
  <diagram id="xn7pYvQXORpjo_hqVjBw" name="Page-1">
    <mxGraphModel dx="1210" dy="643" grid="1" gridSize="10" guides="1" tooltips="1" connect="1" arrows="1" fold="1" page="1" pageScale="1" pageWidth="850" pageHeight="1100" math="0" shadow="0">
      <root>
        <mxCell id="0" />
        <mxCell id="1" parent="0" />
        <mxCell id="AZ5q8qD32m1SHY0_1xM5-1" value=":Lift_op" style="shape=umlLifeline;perimeter=lifelinePerimeter;whiteSpace=wrap;html=1;container=1;collapsible=0;recursiveResize=0;outlineConnect=0;rounded=1;" parent="1" vertex="1">
          <mxGeometry x="90" y="70" width="100" height="360" as="geometry" />
        </mxCell>
        <mxCell id="AZ5q8qD32m1SHY0_1xM5-4" value="" style="html=1;points=[];perimeter=orthogonalPerimeter;" parent="AZ5q8qD32m1SHY0_1xM5-1" vertex="1">
          <mxGeometry x="45" y="60" width="10" height="300" as="geometry" />
        </mxCell>
        <mxCell id="AZ5q8qD32m1SHY0_1xM5-5" value="GET /report error" style="html=1;verticalAlign=bottom;endArrow=block;entryX=0;entryY=0;rounded=0;" parent="AZ5q8qD32m1SHY0_1xM5-1" target="AZ5q8qD32m1SHY0_1xM5-4" edge="1">
          <mxGeometry relative="1" as="geometry">
            <mxPoint x="-50" y="60" as="sourcePoint" />
          </mxGeometry>
        </mxCell>
        <mxCell id="AZ5q8qD32m1SHY0_1xM5-6" value="return" style="html=1;verticalAlign=bottom;endArrow=open;dashed=1;endSize=8;rounded=0;" parent="AZ5q8qD32m1SHY0_1xM5-1" source="AZ5q8qD32m1SHY0_1xM5-4" edge="1">
          <mxGeometry relative="1" as="geometry">
            <mxPoint x="-50" y="350" as="targetPoint" />
            <mxPoint x="40" y="350" as="sourcePoint" />
          </mxGeometry>
        </mxCell>
        <mxCell id="AZ5q8qD32m1SHY0_1xM5-10" value="" style="html=1;points=[];perimeter=orthogonalPerimeter;" parent="AZ5q8qD32m1SHY0_1xM5-1" vertex="1">
          <mxGeometry x="50" y="320" width="10" height="10" as="geometry" />
        </mxCell>
        <mxCell id="AZ5q8qD32m1SHY0_1xM5-11" value="stop()" style="edgeStyle=orthogonalEdgeStyle;html=1;align=left;spacingLeft=2;endArrow=block;rounded=0;entryX=1;entryY=0;" parent="AZ5q8qD32m1SHY0_1xM5-1" target="AZ5q8qD32m1SHY0_1xM5-10" edge="1">
          <mxGeometry relative="1" as="geometry">
            <mxPoint x="55" y="300" as="sourcePoint" />
            <Array as="points">
              <mxPoint x="85" y="300" />
            </Array>
          </mxGeometry>
        </mxCell>
        <mxCell id="AZ5q8qD32m1SHY0_1xM5-17" value="&lt;div align=&quot;left&quot; style=&quot;font-size: 10px&quot;&gt;&lt;font style=&quot;font-size: 10px&quot;&gt;{&lt;/font&gt;&lt;/div&gt;&lt;div align=&quot;left&quot; style=&quot;font-size: 10px&quot;&gt;&lt;font style=&quot;font-size: 10px&quot;&gt;&amp;nbsp;&amp;nbsp; ID&lt;/font&gt;&lt;/div&gt;&lt;div align=&quot;left&quot; style=&quot;font-size: 10px&quot;&gt;&lt;font style=&quot;font-size: 10px&quot;&gt;&amp;nbsp;&amp;nbsp; message&lt;/font&gt;&lt;/div&gt;&lt;div align=&quot;left&quot; style=&quot;font-size: 10px&quot;&gt;&lt;font style=&quot;font-size: 10px&quot;&gt;&amp;nbsp;&amp;nbsp; Type&lt;/font&gt;&lt;/div&gt;&lt;div align=&quot;left&quot; style=&quot;font-size: 10px&quot;&gt;&lt;font style=&quot;font-size: 10px&quot;&gt;&amp;nbsp;&amp;nbsp; severity&lt;/font&gt;&lt;/div&gt;&lt;div align=&quot;left&quot; style=&quot;font-size: 10px&quot;&gt;&lt;font style=&quot;font-size: 10px&quot;&gt;}&lt;/font&gt;&lt;br&gt;&lt;/div&gt;" style="shape=note;size=20;whiteSpace=wrap;html=1;" parent="AZ5q8qD32m1SHY0_1xM5-1" vertex="1">
          <mxGeometry x="120" y="80" width="70" height="80" as="geometry" />
        </mxCell>
        <mxCell id="AZ5q8qD32m1SHY0_1xM5-2" value=":Central_control_unit" style="shape=umlLifeline;perimeter=lifelinePerimeter;whiteSpace=wrap;html=1;container=1;collapsible=0;recursiveResize=0;outlineConnect=0;rounded=1;" parent="1" vertex="1">
          <mxGeometry x="250" y="70" width="130" height="350" as="geometry" />
        </mxCell>
        <mxCell id="AZ5q8qD32m1SHY0_1xM5-12" value="" style="html=1;points=[];perimeter=orthogonalPerimeter;" parent="AZ5q8qD32m1SHY0_1xM5-2" vertex="1">
          <mxGeometry x="60" y="100" width="10" height="90" as="geometry" />
        </mxCell>
        <mxCell id="AZ5q8qD32m1SHY0_1xM5-15" value="" style="html=1;points=[];perimeter=orthogonalPerimeter;" parent="AZ5q8qD32m1SHY0_1xM5-2" vertex="1">
          <mxGeometry x="70" y="155" width="10" height="20" as="geometry" />
        </mxCell>
        <mxCell id="AZ5q8qD32m1SHY0_1xM5-16" value="handle_error()" style="edgeStyle=orthogonalEdgeStyle;html=1;align=left;spacingLeft=2;endArrow=block;rounded=0;entryX=1;entryY=0;" parent="AZ5q8qD32m1SHY0_1xM5-2" target="AZ5q8qD32m1SHY0_1xM5-15" edge="1">
          <mxGeometry relative="1" as="geometry">
            <mxPoint x="70" y="130" as="sourcePoint" />
            <Array as="points">
              <mxPoint x="100" y="130" />
              <mxPoint x="100" y="155" />
            </Array>
          </mxGeometry>
        </mxCell>
        <mxCell id="AZ5q8qD32m1SHY0_1xM5-3" value="Rabbit MQ" style="shape=umlLifeline;perimeter=lifelinePerimeter;whiteSpace=wrap;html=1;container=1;collapsible=0;recursiveResize=0;outlineConnect=0;rounded=1;" parent="1" vertex="1">
          <mxGeometry x="480" y="70" width="100" height="360" as="geometry" />
        </mxCell>
        <mxCell id="AZ5q8qD32m1SHY0_1xM5-7" value="" style="html=1;points=[];perimeter=orthogonalPerimeter;" parent="AZ5q8qD32m1SHY0_1xM5-3" vertex="1">
          <mxGeometry x="45" y="70" width="10" height="220" as="geometry" />
        </mxCell>
        <mxCell id="AZ5q8qD32m1SHY0_1xM5-8" value="dispatch" style="html=1;verticalAlign=bottom;endArrow=block;entryX=0;entryY=0;rounded=0;" parent="1" target="AZ5q8qD32m1SHY0_1xM5-7" edge="1">
          <mxGeometry relative="1" as="geometry">
            <mxPoint x="140" y="140" as="sourcePoint" />
          </mxGeometry>
        </mxCell>
        <mxCell id="AZ5q8qD32m1SHY0_1xM5-9" value="consume control message" style="html=1;verticalAlign=bottom;endArrow=open;dashed=1;endSize=8;exitX=0;exitY=0.95;rounded=0;" parent="1" source="AZ5q8qD32m1SHY0_1xM5-7" target="AZ5q8qD32m1SHY0_1xM5-4" edge="1">
          <mxGeometry relative="1" as="geometry">
            <mxPoint x="455" y="216" as="targetPoint" />
          </mxGeometry>
        </mxCell>
        <mxCell id="AZ5q8qD32m1SHY0_1xM5-13" value="consume error message" style="html=1;verticalAlign=bottom;endArrow=block;entryX=1;entryY=0;rounded=0;exitX=-0.167;exitY=0.142;exitDx=0;exitDy=0;exitPerimeter=0;" parent="1" source="AZ5q8qD32m1SHY0_1xM5-7" target="AZ5q8qD32m1SHY0_1xM5-12" edge="1">
          <mxGeometry relative="1" as="geometry">
            <mxPoint x="375" y="170" as="sourcePoint" />
          </mxGeometry>
        </mxCell>
        <mxCell id="AZ5q8qD32m1SHY0_1xM5-14" value="producer control message" style="html=1;verticalAlign=bottom;endArrow=open;dashed=1;endSize=8;exitX=1;exitY=0.95;rounded=0;" parent="1" source="AZ5q8qD32m1SHY0_1xM5-12" target="AZ5q8qD32m1SHY0_1xM5-7" edge="1">
          <mxGeometry relative="1" as="geometry">
            <mxPoint x="470" y="260" as="targetPoint" />
          </mxGeometry>
        </mxCell>
        <mxCell id="AZ5q8qD32m1SHY0_1xM5-18" value="&lt;div align=&quot;left&quot; style=&quot;font-size: 10px&quot;&gt;&lt;font style=&quot;font-size: 10px&quot;&gt;{&lt;/font&gt;&lt;/div&gt;&lt;div align=&quot;left&quot; style=&quot;font-size: 10px&quot;&gt;&lt;font style=&quot;font-size: 10px&quot;&gt;&amp;nbsp;&amp;nbsp; ID: ID&lt;br&gt;&lt;/font&gt;&lt;/div&gt;&lt;div align=&quot;left&quot; style=&quot;font-size: 10px&quot;&gt;&lt;font style=&quot;font-size: 10px&quot;&gt;&amp;nbsp;&amp;nbsp; OP: enum&lt;br&gt;&lt;/font&gt;&lt;/div&gt;&lt;div align=&quot;left&quot; style=&quot;font-size: 10px&quot;&gt;&lt;font style=&quot;font-size: 10px&quot;&gt;}&lt;/font&gt;&lt;br&gt;&lt;/div&gt;" style="shape=note;size=20;whiteSpace=wrap;html=1;" parent="1" vertex="1">
          <mxGeometry x="390" y="360" width="70" height="60" as="geometry" />
        </mxCell>
      </root>
    </mxGraphModel>
  </diagram>
</mxfile>
